<svg width="311" height="129" viewBox="0 0 311 129" fill="none" xmlns="http://www.w3.org/2000/svg">
<g filter="url(#filter0_d)">
<path d="M54.696 25.424C52.584 25.424 50.856 27.216 50.856 29.328V44.304C48.232 42.64 45.16 41.616 41.832 41.616C32.936 41.616 25.64 48.912 25.64 57.808C25.64 66.768 32.936 74 41.832 74C45.224 74 48.424 72.976 50.984 71.184C51.496 72.784 52.968 73.872 54.696 73.872C56.872 73.872 58.6 72.144 58.6 70.032V29.328C58.6 27.216 56.872 25.424 54.696 25.424ZM41.832 66.256C37.16 66.256 33.384 62.48 33.384 57.808C33.384 53.136 37.16 49.36 41.832 49.36C46.504 49.36 50.28 53.136 50.28 57.808C50.28 62.48 46.504 66.256 41.832 66.256ZM79.4365 73.808C75.2125 73.808 71.3085 72.208 68.3005 69.328C65.2285 66.32 63.5005 62.352 63.3725 58.064C63.3085 53.84 64.8445 49.744 67.9165 46.672C70.8605 43.6 74.8285 41.872 79.1165 41.744C83.4045 41.68 87.4365 43.28 90.5085 46.288C92.0445 47.696 92.1085 50.192 90.6365 51.664C89.1645 53.2 86.7325 53.264 85.1965 51.792C83.5965 50.256 81.4845 49.424 79.2445 49.424C77.0045 49.424 74.9565 50.384 73.3565 51.984C71.8845 53.584 70.9885 55.696 71.0525 57.936C71.0525 60.112 72.0125 62.288 73.6125 63.76C75.2125 65.36 77.3245 66.192 79.5005 66.128C81.6125 66.128 83.5965 65.296 85.1325 63.888C86.6045 62.416 89.1005 62.544 90.5085 64.08C91.9805 65.616 91.8525 68.048 90.3165 69.52C87.4365 72.208 83.6605 73.744 79.6925 73.808H79.4365ZM111.984 73.872C103.152 73.872 95.92 66.704 95.92 57.808C95.92 48.976 103.152 41.744 111.984 41.744C120.816 41.744 128.048 48.976 128.112 57.872C128.048 66.704 120.816 73.872 111.984 73.872ZM111.984 49.616C107.44 49.616 103.792 53.264 103.792 57.808C103.792 62.352 107.44 66 111.984 66C116.528 66 120.176 62.352 120.176 57.808C120.176 53.264 116.528 49.616 111.984 49.616ZM147.791 74.192C139.47 74.192 132.623 66.96 132.623 58.128V45.904C132.623 43.792 134.223 42.064 136.207 42.064C138.255 42.064 140.239 43.792 140.239 45.904V58.128C140.239 62.736 144.079 66.448 147.791 66.448C152.143 66.448 155.407 62.736 155.407 58.128V46.416C155.407 44.24 157.647 42.576 159.375 42.576C161.359 42.576 163.023 44.24 163.023 46.416V58.128C163.023 66.96 156.175 74.192 147.791 74.192ZM183.355 42.064C180.475 42.064 177.851 42.896 175.547 44.368C175.035 42.832 173.627 41.744 171.963 41.744C169.851 41.744 168.123 43.472 168.123 45.584V70.032C168.123 72.144 169.851 73.872 171.963 73.872C174.075 73.872 175.803 72.144 175.803 70.032V59.152C175.803 54.736 178.363 49.744 183.355 49.744C187.387 49.744 190.715 53.392 190.715 57.936V70.032C190.715 72.144 192.379 73.872 194.555 73.872C196.667 73.872 198.331 72.144 198.331 70.032V57.936C198.331 49.168 191.611 42.064 183.355 42.064ZM216.371 66.128C215.923 66.128 215.347 66.192 215.027 65.872C214.579 65.488 214.707 64.72 214.579 64.208V48.976H216.691C218.803 48.976 220.531 47.248 220.531 45.136C220.531 43.024 218.803 41.296 216.691 41.296H214.579V29.072C214.579 26.96 212.851 25.232 210.739 25.232C208.627 25.232 206.899 26.96 206.899 29.072V41.296H204.147C202.035 41.296 200.306 43.024 200.306 45.136C200.306 47.248 202.035 48.976 204.147 48.976H206.899V65.104C206.899 67.088 207.795 69.392 209.075 70.864C210.547 72.528 212.595 73.424 214.707 73.744C215.283 73.808 215.795 73.808 216.371 73.808C218.483 73.808 220.211 72.144 220.211 69.968C220.211 67.856 218.483 66.128 216.371 66.128ZM253.805 57.808C254.061 57.168 254.317 56.528 254.317 55.952C254.445 53.84 253.293 51.472 252.269 49.68C249.965 45.84 246.253 43.152 241.901 42.32C240.941 42.128 240.045 42.064 239.085 42.064C230.189 42.064 223.085 49.36 223.085 58.128C223.085 67.024 230.189 74.192 239.085 74.192C242.733 74.192 247.661 73.04 251.181 69.648C252.717 68.176 252.781 65.68 251.245 64.208C249.773 62.672 247.341 62.672 245.805 64.144C244.141 65.744 241.133 66.576 239.085 66.576C235.117 66.576 231.853 63.76 230.957 60.112H250.669C252.205 60.112 253.293 59.024 253.805 57.808ZM239.085 49.808C241.965 49.808 244.333 51.216 245.613 53.648H232.045C233.581 51.28 236.141 49.808 239.085 49.808ZM283.986 46.352C281.106 43.664 277.394 42.128 273.426 42.128C270.482 42.128 267.666 43.024 265.298 44.496C264.786 42.96 263.378 41.872 261.65 41.872C259.538 41.872 257.81 43.536 257.81 45.648V70.16C257.81 72.272 259.538 74 261.65 74C263.762 74 265.49 72.272 265.49 70.16V58.064C265.49 53.52 269.074 49.808 273.426 49.808C275.41 49.808 277.33 50.576 278.738 51.92C280.338 53.392 282.706 53.264 284.178 51.728C285.65 50.192 285.522 47.76 283.986 46.352ZM32.872 103.048C29.584 103.048 26.08 100.816 26.08 96.712V86.296C26.08 85.48 26.728 84.832 27.544 84.832C28.36 84.832 29.032 85.48 29.032 86.296V96.712C29.032 98.92 30.976 100.072 32.872 100.072C34.792 100.072 36.736 98.92 36.736 96.712V86.296C36.736 85.48 37.408 84.832 38.224 84.832C39.04 84.832 39.688 85.48 39.688 86.296V96.712C39.688 100.816 36.184 103.048 32.872 103.048ZM62.4694 103.072C62.1094 103.072 61.7494 102.928 61.4854 102.664C61.2214 102.4 61.0534 102.04 61.0534 101.656V86.272C61.0534 85.48 61.7014 84.856 62.4694 84.856C63.2614 84.856 63.8854 85.48 63.8854 86.272V100.216L70.9414 100.144H70.9654C71.7334 100.144 72.3574 100.768 72.3814 101.536C72.3814 102.328 71.7574 102.976 70.9654 102.976L62.4934 103.072H62.4694ZM105.357 84.832H94.2213C93.4293 84.832 92.7813 85.48 92.7813 86.272C92.7813 87.088 93.4293 87.736 94.2213 87.736H98.3253V101.584C98.3253 102.4 98.9733 103.048 99.7893 103.048C100.581 103.048 101.229 102.4 101.229 101.584V87.736H105.357C106.149 87.736 106.797 87.088 106.797 86.272C106.797 85.48 106.149 84.832 105.357 84.832ZM129.832 102.976C129.04 102.976 128.392 102.328 128.392 101.512V86.224C128.392 85.408 129.04 84.76 129.832 84.76C130.648 84.76 131.296 85.408 131.296 86.224V101.512C131.296 102.328 130.648 102.976 129.832 102.976ZM169.036 86.224V86.152C169.036 86.128 169.036 86.104 169.036 86.08V86.008C169.012 85.984 169.012 85.96 169.012 85.936C169.012 85.912 168.988 85.888 168.988 85.864C168.988 85.84 168.988 85.816 168.964 85.792C168.964 85.768 168.964 85.768 168.94 85.744C168.94 85.72 168.94 85.696 168.916 85.672C168.916 85.648 168.892 85.624 168.892 85.6C168.868 85.576 168.868 85.576 168.868 85.552C168.844 85.528 168.82 85.504 168.82 85.48L168.772 85.432C168.772 85.408 168.748 85.384 168.724 85.36C168.724 85.336 168.7 85.336 168.7 85.312C168.676 85.288 168.652 85.288 168.652 85.264L168.604 85.216C168.58 85.192 168.556 85.168 168.532 85.168C168.532 85.144 168.508 85.12 168.484 85.12L168.46 85.096C168.436 85.072 168.436 85.072 168.436 85.072L168.364 85.024C168.34 85.024 168.316 85 168.316 85L168.244 84.952C168.22 84.952 168.196 84.952 168.172 84.928C168.148 84.928 168.124 84.904 168.124 84.904C168.1 84.904 168.076 84.88 168.028 84.88C168.028 84.88 168.004 84.88 167.98 84.856C167.956 84.856 167.932 84.856 167.908 84.832H167.836C167.812 84.832 167.788 84.832 167.764 84.808H167.716C167.668 84.808 167.644 84.808 167.62 84.808H167.596C167.572 84.808 167.572 84.808 167.548 84.808H167.476C167.452 84.808 167.428 84.808 167.404 84.832H167.332C167.308 84.832 167.284 84.832 167.26 84.856H167.188C167.164 84.88 167.14 84.88 167.116 84.88C167.092 84.904 167.092 84.904 167.068 84.904C167.044 84.928 167.02 84.928 166.996 84.928L166.924 84.976C166.9 84.976 166.9 84.976 166.876 85C166.852 85 166.828 85.024 166.804 85.048C166.78 85.048 166.78 85.072 166.756 85.072C166.732 85.096 166.708 85.096 166.684 85.12L166.636 85.168C166.612 85.168 166.612 85.192 166.588 85.216C166.564 85.24 166.54 85.24 166.54 85.264C166.516 85.288 166.492 85.288 166.492 85.312C166.468 85.336 166.444 85.36 166.444 85.384C166.42 85.384 166.42 85.384 166.42 85.408L161.212 92.536L156.028 85.408C156.004 85.384 156.004 85.384 155.98 85.384C155.98 85.36 155.956 85.336 155.932 85.312C155.932 85.288 155.908 85.288 155.884 85.264C155.884 85.24 155.86 85.24 155.86 85.216C155.836 85.192 155.812 85.168 155.788 85.168C155.764 85.144 155.764 85.144 155.74 85.12L155.668 85.072C155.668 85.072 155.644 85.048 155.62 85.048C155.596 85.024 155.572 85 155.548 85C155.548 84.976 155.524 84.976 155.5 84.976L155.428 84.928C155.404 84.928 155.404 84.928 155.38 84.904C155.356 84.904 155.332 84.904 155.308 84.88C155.284 84.88 155.26 84.88 155.236 84.856H155.164C155.14 84.832 155.116 84.832 155.092 84.832H155.02C154.996 84.808 154.972 84.808 154.972 84.808H154.876C154.852 84.808 154.852 84.808 154.828 84.808C154.78 84.808 154.756 84.808 154.732 84.808H154.684C154.636 84.832 154.612 84.832 154.588 84.832H154.54C154.492 84.856 154.468 84.856 154.444 84.856C154.42 84.88 154.42 84.88 154.396 84.88C154.372 84.88 154.348 84.904 154.324 84.904C154.3 84.904 154.276 84.928 154.252 84.928C154.228 84.952 154.204 84.952 154.18 84.952C154.18 84.976 154.156 84.976 154.132 85C154.108 85 154.084 85.024 154.06 85.024C154.036 85.048 154.012 85.048 154.012 85.072C153.988 85.072 153.988 85.072 153.988 85.096C153.964 85.096 153.964 85.096 153.94 85.12L153.892 85.168C153.868 85.168 153.844 85.192 153.844 85.216C153.82 85.216 153.796 85.24 153.796 85.264L153.724 85.312C153.724 85.336 153.7 85.336 153.7 85.36C153.676 85.384 153.652 85.408 153.652 85.432L153.604 85.48C153.604 85.504 153.58 85.528 153.58 85.552L153.532 85.6C153.532 85.624 153.532 85.648 153.508 85.672C153.508 85.696 153.484 85.72 153.484 85.744C153.484 85.768 153.46 85.768 153.46 85.792C153.46 85.816 153.436 85.84 153.436 85.864C153.436 85.888 153.436 85.912 153.412 85.936V86.008C153.412 86.032 153.388 86.056 153.388 86.08V86.152C153.388 86.176 153.388 86.2 153.388 86.224V86.272V101.56C153.388 102.376 154.036 103.024 154.828 103.024C155.644 103.024 156.292 102.376 156.292 101.56V90.736L160.036 95.872C160.324 96.232 160.756 96.472 161.212 96.472C161.692 96.472 162.124 96.232 162.388 95.872L166.132 90.736V101.56C166.132 102.376 166.78 103.024 167.596 103.024C168.388 103.024 169.06 102.376 169.06 101.56V86.272C169.06 86.248 169.036 86.248 169.036 86.224ZM207.611 101.008L200.051 85.864C199.787 85.384 199.307 85.072 198.755 85.072H198.731C198.179 85.096 197.699 85.408 197.459 85.912L190.451 101.056C190.115 101.776 190.427 102.616 191.147 102.952C191.339 103.048 191.531 103.096 191.747 103.096C192.275 103.096 192.803 102.784 193.043 102.256L194.771 98.536C194.819 98.56 194.867 98.56 194.939 98.56H203.147H203.171L205.043 102.304C205.403 103 206.267 103.288 206.963 102.928C207.683 102.592 207.971 101.728 207.611 101.008ZM196.091 95.68L198.803 89.824L201.731 95.68H196.091ZM241.079 84.832H229.943C229.151 84.832 228.503 85.48 228.503 86.272C228.503 87.088 229.151 87.736 229.943 87.736H234.047V101.584C234.047 102.4 234.695 103.048 235.511 103.048C236.303 103.048 236.951 102.4 236.951 101.584V87.736H241.079C241.871 87.736 242.519 87.088 242.519 86.272C242.519 85.48 241.871 84.832 241.079 84.832ZM273.114 95.392C273.906 95.392 274.554 94.768 274.554 93.976C274.554 93.16 273.906 92.536 273.114 92.536H266.25V87.664H273.114C273.906 87.664 274.554 87.016 274.554 86.224C274.554 85.432 273.906 84.784 273.114 84.784H264.81C264.018 84.784 263.394 85.432 263.394 86.224V101.584C263.394 102.376 264.018 103 264.81 103H273.114C273.906 103 274.554 102.376 274.554 101.584C274.554 100.792 273.906 100.144 273.114 100.144H266.25V95.392H273.114Z" fill="white"/>
</g>
<defs>
<filter id="filter0_d" x="0.640015" y="0.231995" width="309.573" height="127.864" filterUnits="userSpaceOnUse" color-interpolation-filters="sRGB">
<feFlood flood-opacity="0" result="BackgroundImageFix"/>
<feColorMatrix in="SourceAlpha" type="matrix" values="0 0 0 0 0 0 0 0 0 0 0 0 0 0 0 0 0 0 127 0"/>
<feOffset/>
<feGaussianBlur stdDeviation="12.5"/>
<feColorMatrix type="matrix" values="0 0 0 0 1 0 0 0 0 1 0 0 0 0 1 0 0 0 0.75 0"/>
<feBlend mode="normal" in2="BackgroundImageFix" result="effect1_dropShadow"/>
<feBlend mode="normal" in="SourceGraphic" in2="effect1_dropShadow" result="shape"/>
</filter>
</defs>
</svg>